<svg width="512" height="512" viewBox="0 0 512 512" xmlns="http://www.w3.org/2000/svg">
  <title>
    default-avatar-large
  </title>
  <g fill="none" fill-rule="evenodd">
    <path fill="none" d="M.06 512H512V0H.06"/>
    <path d="M244.27 84.39c4.23-.72 8.5-.27 12.72.25 18.24 1.26 36.33 8 50.08 20.22 11.44 10.03 20.01 23.3 24.19 37.94 7.32 23.23 4.22 48.09-1.14 71.39-5.83 22.93-14 45.45-26.19 65.81-2.04 3.56-4.88 6.71-6.3 10.61-1.63 8.72-2.06 18.73 3.58 26.19 4.82 6.5 13.06 8.52 20.4 10.73 14.02 4.74 28.26 8.97 41.84 14.93 12.65 5.74 25.22 12.1 35.82 21.23 12.11 9.99 18.04 25.17 22.05 39.9 1.19 5.08 2.03 10.24 2.59 15.42.5 3.62-1.46 7.42-4.67 9.16-2.51 1.41-5.43 1.78-8.25 1.88-105.32.04-210.64-.02-315.96.03-5.43-.08-11.57.56-16.17-2.92-3.63-2.84-3.21-7.92-2.58-11.98 2.54-17.65 8.75-35.53 21.16-48.71 18.85-17.37 43.35-26.51 67.2-34.71 8.51-2.95 17.36-4.92 25.66-8.44 6.91-2.92 11.83-9.77 12.47-17.23.29-4.06.26-8.14.03-12.19-.1-3.62-2.34-6.62-4.24-9.51-8.36-12.46-14.47-26.24-19.76-40.23-7.55-20.67-13.03-42.24-14.46-64.25-1.26-8.66.22-17.35 1.47-25.91 3.49-20.84 14.55-40.9 31.93-53.27 13.32-10.12 30.02-15.03 46.53-16.34" fill="#C3C7C7"/>
  </g>
</svg>
